<?xml version="1.0" encoding="iso-8859-1"?>
<!-- Generator: Adobe Illustrator 19.0.0, SVG Export Plug-In . SVG Version: 6.00 Build 0)  -->
<svg version="1.1" id="Layer_1" xmlns="http://www.w3.org/2000/svg" xmlns:xlink="http://www.w3.org/1999/xlink" x="0px" y="0px"
	 viewBox="0 0 473.931 473.931" style="enable-background:new 0 0 473.931 473.931;" xml:space="preserve">
<circle style="fill:#E79E2D;" cx="236.966" cy="236.966" r="236.966"/>
<g>
	<path style="fill:#9B7842;" d="M333.084,106.992l2.739,58.098l-13.504,0.007c-1.257-10.23-2.96-17.541-5.115-21.923
		c-3.521-7.068-8.206-12.269-14.054-15.626c-5.848-3.349-13.541-5.021-23.079-5.021l-31.397-0.007v182.126
		c0,15.221,1.643,24.722,4.932,28.501c4.625,5.115,11.753,9.852,21.377,9.852h8.587v11.738H178.516V343h8.771
		c10.473,0,17.904-5.343,22.29-11.678c2.683-3.895,4.019-12.789,4.019-26.675V122.524l-26.529,0.007
		c-10.787,0-18.454,0.857-22.993,2.559c-5.912,2.316-10.963,6.761-15.165,13.336c-4.202,6.574-6.701,15.472-7.491,26.675
		l-13.511-0.007l2.922-58.098h202.257V106.992z"/>
	<path style="fill:#9B7842;" d="M387.104,345.499c0,3.274-2.653,5.927-5.927,5.927h-44.28c-3.274,0-5.927-2.653-5.927-5.927
		l50.207-50.199c3.274,0,5.927,2.653,5.927,5.927V345.499z"/>
</g>
<g>
</g>
<g>
</g>
<g>
</g>
<g>
</g>
<g>
</g>
<g>
</g>
<g>
</g>
<g>
</g>
<g>
</g>
<g>
</g>
<g>
</g>
<g>
</g>
<g>
</g>
<g>
</g>
<g>
</g>
</svg>
